<svg xmlns="http://www.w3.org/2000/svg" width="40" height="40" viewBox="0 0 40 40">
  <path id="icons8-linkedin" d="M39.238,4H8.762A4.764,4.764,0,0,0,4,8.762V39.238A4.764,4.764,0,0,0,8.762,44H39.238A4.764,4.764,0,0,0,44,39.238V8.762A4.764,4.764,0,0,0,39.238,4ZM16.381,19.238v18.1H10.667v-18.1Zm-5.714-5.267c0-1.333,1.143-2.352,2.857-2.352a2.577,2.577,0,0,1,2.857,2.352c0,1.333-1.067,2.41-2.857,2.41A2.578,2.578,0,0,1,10.667,13.971ZM37.333,37.333H31.619V27.81c0-1.9-.952-3.81-3.333-3.848H28.21c-2.3,0-3.257,1.962-3.257,3.848v9.524H19.238v-18.1h5.714v2.438a7.134,7.134,0,0,1,5.533-2.438c3.781,0,6.848,2.6,6.848,7.867Z" transform="translate(-4 -4)" fill="#0077b5"/>
</svg>
